<?xml version="1.0" encoding="UTF-8"?>
<svg id="Layer_1" xmlns="http://www.w3.org/2000/svg" version="1.1" viewBox="0 0 172.49 179">
  <!-- Generator: Adobe Illustrator 30.2.1, SVG Export Plug-In . SVG Version: 2.1.1 Build 1)  -->
  <defs>
    <style>
      .st0 {
        fill: #a8b837;
      }

      .st1 {
        fill: #3f84c5;
      }
    </style>
  </defs>
  <path class="st0" d="M28.84,51.74C39.15,17.72,74.95-7.05,114.91,1.81c39.22,8.7,59.67,44.43,57.41,75.7h-17.18c0-.82-.02-1.65,0-2.48.22-9.4-1.65-18.37-6-26.7-8.26-15.84-21.12-26-38.65-29.68-17.23-3.62-32.9.3-46.72,11.21-8.02,6.34-13.75,14.42-17.37,23.99-.22.58-.37,1-1.16.85-5.32-.96-10.64-1.87-15.97-2.8-.13-.02-.25-.09-.44-.16Z"/>
  <path class="st1" d="M138.63,93.41c-3.36-1.95-6.69-3.93-10.03-5.9-.78-.46-1.58-.9-2.51-1.43-1.09,7.84-4.46,14.28-10.34,19.27-5.89,4.99-12.79,7.41-20.51,6.97-14.21-.8-25.31-10.61-27.79-24.64-2.31-13.08,4.54-26.07,16.72-31.76,11.78-5.5,24.89-2.08,31.88,4.7-6.9,4.58-13.77,9.14-20.65,13.69-6.88,4.55-13.78,9.09-20.7,13.65,2.2,3.33,4.31,6.53,6.5,9.83,18.13-11.99,36.16-23.91,54.32-35.92-.78-1.27-1.44-2.5-2.25-3.63-10.2-14.27-24.04-20.8-41.54-19.26-7.26.64-13.92,3.19-19.91,7.32-15.47,10.67-22.43,29.05-17.93,47.3,1.73,7.04,5.08,13.24,9.93,18.65.27.3.5.86.4,1.2-1.27,4.43-3.41,8.35-7.39,10.9-2.56,1.65-5.22,3.19-7.98,4.46-5.57,2.57-11.26,4.9-16.87,7.39-7.49,3.33-14.59,7.3-20.41,13.22-3.41,3.47-6.14,7.37-7.92,11.95-2.21,5.7-3.24,11.61-3.64,17.63,3.78-8.91,9.93-16.58,17.65-22.22,2.39-2.02,5.09-3.69,7.95-5.16,5.84-3,12.13-4.81,18.31-6.94,5.53-1.9,11.05-3.86,16.44-6.1,4.96-2.06,9.33-5.11,12.63-9.45,1.58-2.08,2.94-4.32,4.46-6.57.18.06.49.14.77.27,8.6,3.99,17.64,5.18,26.84,3.17,17.39-3.78,28.74-14.37,34.04-31.4.19-.61.08-.88-.46-1.2Z"/>
</svg>