<?xml version="1.0" encoding="UTF-8"?>
<svg id="Layer_1" xmlns="http://www.w3.org/2000/svg" version="1.1" viewBox="0 0 168.56 164.88">
  <!-- Generator: Adobe Illustrator 30.2.1, SVG Export Plug-In . SVG Version: 2.1.1 Build 1)  -->
  <defs>
    <style>
      .st0 {
        fill: #fff;
      }
    </style>
  </defs>
  <path class="st0" d="M84.28,6.62C40.58,6.62,5.15,42.05,5.15,85.75c0,21.3,8.43,40.61,22.11,54.84,2.81-1.21,5.62-2.43,8.4-3.72,2.81-1.3,5.52-2.87,8.13-4.55,4.05-2.6,6.23-6.6,7.53-11.11.1-.35-.14-.92-.41-1.22-4.94-5.5-8.35-11.83-10.12-19-4.58-18.59,2.52-37.32,18.27-48.19,6.11-4.21,12.89-6.81,20.29-7.46,17.84-1.57,31.93,5.09,42.33,19.63.82,1.15,1.49,2.4,2.29,3.7-18.51,12.24-36.88,24.38-55.35,36.6-2.23-3.37-4.38-6.62-6.62-10.01,7.05-4.65,14.08-9.27,21.09-13.91s14.01-9.29,21.04-13.95c-7.12-6.9-20.47-10.4-32.48-4.79-12.41,5.8-19.39,19.03-17.04,32.36,2.53,14.29,13.83,24.29,28.32,25.11,7.87.44,14.9-2.02,20.9-7.11,5.99-5.08,9.43-11.64,10.54-19.63.95.54,1.76.99,2.56,1.46,3.41,2.01,6.8,4.03,10.22,6.01.55.32.66.6.47,1.22-5.39,17.36-16.96,28.14-34.68,32-9.38,2.04-18.58.83-27.35-3.23-.29-.13-.61-.21-.79-.27-1.55,2.29-2.94,4.57-4.55,6.69-3.36,4.43-7.81,7.53-12.87,9.63-2.94,1.22-5.91,2.35-8.9,3.44,12.93,9.19,28.72,14.61,45.78,14.61,43.7,0,79.13-35.43,79.13-79.13S127.99,6.62,84.28,6.62Z"/>
  <path class="st0" d="M0,60.71C12.09,20.79,54.11-8.28,101,2.13c46.03,10.21,70.01,52.14,67.37,88.83h-20.16c0-.96-.02-1.94,0-2.91.26-11.03-1.94-21.56-7.04-31.33-9.7-18.59-24.78-30.51-45.35-34.83-20.22-4.24-38.61.36-54.83,13.16-9.42,7.43-16.14,16.92-20.38,28.15-.26.68-.44,1.17-1.36,1-6.24-1.12-12.49-2.2-18.74-3.29-.15-.03-.3-.11-.52-.19h.01Z"/>
</svg>