<?xml version="1.0" encoding="UTF-8"?>
<svg id="Layer_1" xmlns="http://www.w3.org/2000/svg" version="1.1" viewBox="0 0 285.64 149.62">
  <!-- Generator: Adobe Illustrator 30.2.1, SVG Export Plug-In . SVG Version: 2.1.1 Build 1)  -->
  <defs>
    <style>
      .st0 {
        fill: #6d6e71;
      }

      .st1 {
        fill: #acbc37;
      }

      .st2 {
        fill: #3f84c5;
      }
    </style>
  </defs>
  <path class="st1" d="M20.78,38.64C28.47,13.23,55.21-5.27,85.06,1.35c29.29,6.5,44.56,33.18,42.88,56.54h-12.83c0-.61-.01-1.23,0-1.85.17-7.02-1.23-13.72-4.48-19.94-6.17-11.83-15.77-19.42-28.86-22.17-12.87-2.7-24.57.23-34.89,8.38-5.99,4.73-10.27,10.77-12.97,17.92-.16.43-.28.74-.87.64-3.97-.71-7.95-1.4-11.93-2.09-.1-.02-.19-.07-.33-.12Z"/>
  <path class="st0" d="M283.86,76.72c-8.75,5.78-17.42,11.52-26.21,17.33-1.05-1.58-2.08-3.12-3.16-4.74,6.67-4.41,13.3-8.8,19.94-13.19-3.3-3.32-9.88-5-15.72-2.12-5.63,2.77-8.91,9.35-7.67,15.53,1.32,6.57,6.85,11.23,13.66,11.54,5.5.25,13.19-3.45,14.66-12.65.93.54,1.84,1.05,2.74,1.58,1.03.6,2.04,1.22,3.08,1.79.41.23.56.44.4.93-2.18,6.8-6.51,11.62-13.26,14.08-5.81,2.12-11.55,1.76-17.02-1.11-6.31-3.31-10.14-8.59-11.23-15.65-1.59-10.37,4.33-20.03,14.16-23.41,9.54-3.28,20.17.67,25.27,9.39.12.2.22.41.36.7Z"/>
  <path class="st0" d="M11.14,107.2c0-4.27,0-8.47,0-12.67,0-10.94,0-21.88,0-32.81,0-6.73,5.19-12.48,11.89-12.91,3.18-.2,6.38-.04,9.64-.04.02.12.07.29.07.47,0,1.45-.02,2.91.02,4.36.02.6-.2.77-.78.77-1.74-.02-3.49-.04-5.23.02-4.71.16-8.28,3.57-8.6,8.26-.11,1.6-.02,3.22-.02,4.95h14.57v5.71h-14.56v33.89h-6.99Z"/>
  <path class="st0" d="M158.32,100.28v5.66c-1.72,0-3.4.01-5.09,0-1.42-.01-2.86.03-4.27-.1-5.79-.55-10.08-5.27-10.08-11.06-.01-13.21,0-26.41,0-39.62,0-.23,0-.47,0-.77h6.93v12.21h12.69c0,1.84.01,3.6-.03,5.36,0,.12-.47.31-.72.31-3.59.02-7.18.01-10.78.01-.34,0-.68,0-1.06,0-.03.26-.06.43-.06.61,0,6.95-.03,13.89,0,20.84.01,3.1,1.95,5.58,4.88,6.33.7.18,1.46.21,2.19.22,1.79.03,3.58,0,5.4,0Z"/>
  <path class="st0" d="M226.56,66.59h12.59v5.66h-12.52c-.03.55-.07,1.02-.07,1.48,0,6.5.02,13-.01,19.5-.01,2.91,1.09,5.15,3.77,6.39.88.41,1.92.58,2.9.63,1.92.09,3.84.03,5.82.03v5.66c-.46,0-.87,0-1.29,0-2.77-.03-5.56.09-8.31-.14-5.39-.44-9.82-5.21-9.85-10.65-.06-13.45-.02-26.9-.02-40.34,0-.13.02-.25.04-.5.38,0,.74,0,1.1,0,1.61,0,3.22.04,4.83-.02.79-.03,1.04.17,1.03,1-.05,3.46-.02,6.92-.03,10.38,0,.26,0,.52,0,.92Z"/>
  <path class="st0" d="M190.51,47.62c0,.43,0,.69,0,.95,0,18.86,0,37.71.02,56.57,0,.61-.14.84-.79.82-1.79-.04-3.59-.05-5.39,0-.69.02-.89-.19-.88-.89.03-6.34.02-12.68.02-19.01,0-12.49,0-24.98-.02-37.48,0-.76.19-1.01.96-.98,1.71.06,3.43.02,5.15.02.28,0,.56,0,.93,0Z"/>
  <path class="st0" d="M110.01,66.27h6.91v6.24c.05.02.11.04.16.06.52-.67,1.02-1.35,1.56-1.99,2.11-2.48,4.63-4.38,7.95-4.72,1.93-.2,3.89-.04,5.91-.04v5.65c-1.79.2-3.53.24-5.21.6-5.03,1.08-8.07,4.36-9.67,9.13-.52,1.54-.7,3.11-.69,4.74.04,6.36,0,12.73.03,19.09,0,.73-.2.95-.93.93-1.74-.05-3.49-.01-5.23-.01-.26,0-.51-.02-.81-.04v-39.64Z"/>
  <path class="st0" d="M201.41,66.28h6.94c.02.29.05.57.05.85,0,12.68,0,25.35.02,38.03,0,.67-.24.79-.82.79-1.85-.02-3.7-.03-5.55,0-.59.01-.7-.24-.7-.76.02-2.59.02-5.18.02-7.76,0-10.19,0-20.39,0-30.58,0-.16.02-.31.04-.57Z"/>
  <path class="st0" d="M172.57,105.91h-6.88v-39.6h6.88v39.6Z"/>
  <path class="st0" d="M174.24,54.59c.05,2.78-2.16,5.1-4.92,5.16-2.92.06-5.34-2.22-5.38-5.07-.04-2.81,2.26-5.19,5.05-5.24,2.95-.05,5.19,2.16,5.24,5.15Z"/>
  <path class="st0" d="M204.96,49.44c2.83.01,5.08,2.31,5.07,5.18,0,2.9-2.29,5.14-5.2,5.12-2.84-.02-5.08-2.3-5.07-5.17,0-2.88,2.3-5.14,5.21-5.13Z"/>
  <path class="st2" d="M103.54,84.21c-2.51-1.45-4.99-2.94-7.49-4.41-.59-.35-1.18-.68-1.87-1.07-.82,5.86-3.33,10.67-7.73,14.39-4.4,3.73-9.55,5.53-15.32,5.21-10.62-.6-18.9-7.93-20.76-18.4-1.73-9.77,3.39-19.47,12.49-23.72,8.8-4.11,18.59-1.55,23.81,3.51-5.15,3.42-10.28,6.83-15.42,10.23-5.14,3.4-10.29,6.79-15.46,10.2,1.64,2.49,3.22,4.87,4.85,7.34,13.54-8.95,27-17.85,40.57-26.82-.58-.95-1.08-1.87-1.68-2.71-7.62-10.66-17.95-15.53-31.03-14.39-5.43.48-10.4,2.38-14.87,5.47-11.55,7.97-16.75,21.69-13.39,35.32,1.29,5.26,3.8,9.89,7.42,13.92.2.22.38.64.3.9-.95,3.31-2.55,6.23-5.52,8.14-1.91,1.23-3.9,2.38-5.96,3.33-4.16,1.92-8.41,3.66-12.6,5.52-5.59,2.49-10.89,5.45-15.24,9.87-2.55,2.59-4.59,5.51-5.91,8.92-1.65,4.26-2.42,8.67-2.72,13.17,2.82-6.66,7.42-12.38,13.18-16.59,1.79-1.51,3.8-2.75,5.94-3.85,4.36-2.24,9.06-3.59,13.67-5.18,4.13-1.42,8.25-2.88,12.28-4.55,3.71-1.54,6.97-3.82,9.43-7.06,1.18-1.55,2.2-3.22,3.33-4.91.13.05.36.1.58.2,6.42,2.98,13.17,3.87,20.05,2.37,12.99-2.83,21.47-10.73,25.42-23.45.14-.45.06-.66-.35-.89Z"/>
  <g>
    <path class="st2" d="M62.98,130.71v-10.99h7.47v1.89h-5.04v2.67h4.68v1.89h-4.68v4.55h-2.43Z"/>
    <path class="st2" d="M71.99,130.71v-10.99h7.64v1.89h-5.32v2.57h4.96v1.89h-4.96v2.76h5.32v1.89h-7.64Z"/>
    <path class="st2" d="M81.33,130.71v-10.99h4.99c1.24,0,2.19.29,2.86.88.67.59,1.01,1.41,1.01,2.46,0,.69-.15,1.28-.45,1.77-.3.49-.74.87-1.31,1.14-.57.26-1.25.4-2.03.4l.17-.34h.66c.45,0,.85.12,1.2.36.35.24.64.58.86,1.03l1.64,3.31h-2.68l-1.7-3.54c-.12-.29-.32-.49-.58-.58-.27-.1-.57-.15-.91-.15h-1.28v4.27h-2.43ZM83.76,124.66h2.14c.63,0,1.12-.13,1.45-.39s.5-.64.5-1.15-.17-.89-.5-1.14c-.33-.25-.82-.38-1.45-.38h-2.14v3.06Z"/>
    <path class="st2" d="M94.6,130.71v-9.01h-3.48v-1.98h9.42v1.98h-3.49v9.01h-2.45Z"/>
    <path class="st2" d="M101.85,130.71v-10.99h2.43v10.99h-2.43Z"/>
    <path class="st2" d="M106.52,130.71v-10.99h2.43v8.95h4.94v2.04h-7.38Z"/>
    <path class="st2" d="M115.39,130.71v-10.99h2.43v10.99h-2.43Z"/>
    <path class="st2" d="M122.59,130.71v-9.01h-3.48v-1.98h9.42v1.98h-3.49v9.01h-2.45Z"/>
    <path class="st2" d="M132.75,130.71v-5.22l.5,1.39-4.83-7.16h2.82l3.03,4.71h-.5l3.02-4.71h2.71l-4.8,7.16.5-1.39v5.22h-2.45Z"/>
    <path class="st2" d="M153.69,130.87c-.48-.12-.94-.32-1.4-.59s-.87-.57-1.26-.9l.47.02c-.49.47-1.05.83-1.68,1.09-.63.26-1.3.39-2.01.39-.83,0-1.55-.13-2.16-.38-.61-.25-1.08-.61-1.4-1.07-.33-.46-.49-.99-.49-1.61,0-.71.21-1.31.62-1.8.42-.49.98-.94,1.7-1.35l.53-.3-.37.45c-.43-.41-.74-.82-.95-1.24-.21-.42-.31-.86-.31-1.32,0-.53.13-1,.4-1.41s.64-.73,1.14-.95,1.07-.34,1.74-.34c.86,0,1.56.23,2.1.68.54.45.8,1.06.8,1.82,0,.41-.08.79-.24,1.14-.16.35-.41.68-.76.99-.34.31-.79.6-1.33.88l.05-.44,2.57,2.54h-.48c.27-.42.48-.89.62-1.43.15-.54.23-1.11.27-1.72h1.95c-.04.85-.19,1.66-.44,2.43-.25.76-.59,1.44-1.03,2.03v-.51c.29.28.61.52.96.72.35.2.73.37,1.15.51l-.75,1.67ZM147.97,129.09c.46,0,.87-.08,1.23-.25.36-.17.7-.42,1-.76l-.05.55-3.21-3.15.97.02-.42.22c-.3.18-.55.36-.76.56-.2.2-.36.41-.46.63s-.16.47-.16.74c0,.46.16.81.48,1.07s.78.38,1.37.38ZM148.25,121.1c-.35,0-.63.1-.84.31-.21.21-.31.48-.31.81,0,.18.03.35.1.51.07.17.18.34.33.53.16.19.35.41.59.66l-.53.02c.59-.29,1.03-.57,1.31-.85.28-.28.42-.59.42-.94s-.1-.6-.3-.78c-.2-.18-.46-.27-.78-.27Z"/>
    <path class="st2" d="M159.77,130.71v-10.99h4.99c1.24,0,2.19.29,2.86.88.67.59,1.01,1.41,1.01,2.46,0,.69-.15,1.28-.45,1.77-.3.49-.74.87-1.31,1.14-.57.26-1.25.4-2.03.4l.17-.34h.66c.45,0,.85.12,1.2.36.35.24.64.58.86,1.03l1.64,3.31h-2.68l-1.7-3.54c-.12-.29-.32-.49-.58-.58-.27-.1-.57-.15-.91-.15h-1.28v4.27h-2.43ZM162.2,124.66h2.14c.63,0,1.12-.13,1.45-.39s.5-.64.5-1.15-.17-.89-.5-1.14c-.33-.25-.82-.38-1.45-.38h-2.14v3.06Z"/>
    <path class="st2" d="M170.81,130.71v-10.99h7.64v1.89h-5.32v2.57h4.96v1.89h-4.96v2.76h5.32v1.89h-7.64Z"/>
    <path class="st2" d="M180.15,130.71v-10.99h5.12c1.24,0,2.18.3,2.82.9.64.6.97,1.42.97,2.46s-.32,1.83-.97,2.45c-.65.61-1.59.92-2.82.92h-2.68v4.26h-2.43ZM182.58,124.55h2.4c.58,0,1.01-.13,1.29-.38s.42-.62.42-1.1-.14-.83-.42-1.08-.71-.38-1.29-.38h-2.4v2.95Z"/>
    <path class="st2" d="M190.68,130.71v-10.99h4.99c1.24,0,2.19.29,2.86.88.67.59,1.01,1.41,1.01,2.46,0,.69-.15,1.28-.45,1.77-.3.49-.74.87-1.31,1.14-.57.26-1.25.4-2.03.4l.17-.34h.66c.45,0,.85.12,1.2.36.35.24.64.58.86,1.03l1.64,3.31h-2.68l-1.7-3.54c-.12-.29-.32-.49-.58-.58-.27-.1-.57-.15-.91-.15h-1.28v4.27h-2.43ZM193.11,124.66h2.14c.63,0,1.12-.13,1.45-.39s.5-.64.5-1.15-.17-.89-.5-1.14c-.33-.25-.82-.38-1.45-.38h-2.14v3.06Z"/>
    <path class="st2" d="M201.31,125.2c0-1.14.22-2.14.65-2.99.44-.85,1.06-1.5,1.86-1.96.8-.46,1.76-.69,2.88-.69s2.07.23,2.88.69,1.43,1.12,1.88,1.96c.45.85.67,1.84.67,2.97s-.22,2.14-.66,2.99-1.07,1.51-1.88,1.98c-.81.47-1.77.7-2.88.7s-2.07-.23-2.88-.7c-.81-.47-1.43-1.13-1.86-1.98s-.65-1.84-.65-2.98ZM203.86,125.2c0,1.13.24,2.02.72,2.66.48.64,1.19.96,2.14.96s1.65-.32,2.14-.96c.49-.64.73-1.53.73-2.66s-.24-2.03-.73-2.66c-.48-.63-1.2-.94-2.14-.94s-1.66.31-2.14.94c-.48.63-.72,1.52-.72,2.66Z"/>
    <path class="st2" d="M214.04,130.71v-10.99h4.2c1.29,0,2.37.22,3.25.66s1.55,1.06,2,1.88.69,1.8.69,2.96-.23,2.13-.69,2.95-1.13,1.45-2,1.89c-.88.44-1.96.66-3.25.66h-4.2ZM216.47,128.71h1.62c1.23,0,2.14-.29,2.74-.87s.9-1.46.9-2.64-.3-2.08-.9-2.65c-.6-.57-1.51-.86-2.74-.86h-1.62v7.02Z"/>
    <path class="st2" d="M230.8,130.87c-1.62,0-2.83-.4-3.62-1.19s-1.19-1.98-1.19-3.56v-6.39h2.43v6.39c0,.89.19,1.57.56,2.03.37.46.98.69,1.81.69.78,0,1.36-.23,1.75-.69.39-.46.58-1.13.58-2.03v-6.39h2.39v6.39c0,1.58-.39,2.77-1.18,3.56-.79.79-1.97,1.19-3.55,1.19Z"/>
    <path class="st2" d="M243,130.87c-1.16,0-2.17-.23-3.01-.69-.84-.46-1.49-1.12-1.94-1.97s-.68-1.85-.68-2.99.23-2.14.68-2.99c.45-.85,1.1-1.5,1.94-1.96.84-.46,1.85-.69,3.01-.69.77,0,1.47.1,2.09.31.62.21,1.15.51,1.57.92l-.75,1.92c-.48-.37-.93-.64-1.36-.79-.43-.16-.92-.23-1.47-.23-1.03,0-1.82.31-2.36.92-.55.61-.82,1.48-.82,2.6s.27,2.01.82,2.62,1.33.92,2.36.92c.55,0,1.04-.08,1.47-.23.43-.16.88-.42,1.36-.79l.75,1.92c-.43.4-.95.7-1.57.91-.62.21-1.32.32-2.09.32Z"/>
    <path class="st2" d="M250.76,130.71v-9.01h-3.48v-1.98h9.42v1.98h-3.49v9.01h-2.45Z"/>
    <path class="st2" d="M258.01,130.71v-10.99h2.43v10.99h-2.43Z"/>
    <path class="st2" d="M266.29,130.71l-4.96-10.99h2.62l3.76,8.81h-.76l3.76-8.81h2.53l-4.94,10.99h-2Z"/>
    <path class="st2" d="M274.14,130.71v-10.99h7.64v1.89h-5.32v2.57h4.96v1.89h-4.96v2.76h5.32v1.89h-7.64Z"/>
    <path class="st2" d="M151.46,149.46v-10.99h2.12l3.82,8.59h-.5l3.81-8.59h2.12v10.99h-2.2v-7.45h.62l-3.43,7.45h-1.4l-3.42-7.45h.65v7.45h-2.2Z"/>
    <path class="st2" d="M165.1,149.46v-10.99h7.64v1.89h-5.32v2.57h4.96v1.89h-4.96v2.76h5.32v1.89h-7.64Z"/>
    <path class="st2" d="M174.44,149.46v-10.99h4.2c1.29,0,2.37.22,3.25.66s1.55,1.06,2,1.88.69,1.8.69,2.96-.23,2.13-.69,2.95-1.13,1.45-2,1.89c-.88.44-1.96.66-3.25.66h-4.2ZM176.88,147.47h1.62c1.23,0,2.14-.29,2.74-.87s.9-1.46.9-2.64-.3-2.08-.9-2.65c-.6-.57-1.51-.86-2.74-.86h-1.62v7.02Z"/>
    <path class="st2" d="M186.47,149.46v-10.99h2.43v10.99h-2.43Z"/>
    <path class="st2" d="M196.43,149.62c-1.16,0-2.17-.23-3.01-.69-.84-.46-1.49-1.12-1.94-1.97s-.68-1.85-.68-2.99.23-2.14.68-2.99c.45-.85,1.1-1.5,1.94-1.96.84-.46,1.85-.69,3.01-.69.77,0,1.47.1,2.09.31.62.21,1.15.51,1.57.92l-.75,1.92c-.48-.37-.93-.64-1.36-.79-.43-.16-.92-.23-1.47-.23-1.03,0-1.82.31-2.36.92-.55.61-.82,1.48-.82,2.6s.27,2.01.82,2.62,1.33.92,2.36.92c.55,0,1.04-.08,1.47-.23.43-.16.88-.42,1.36-.79l.75,1.92c-.43.4-.95.7-1.57.91-.62.21-1.32.32-2.09.32Z"/>
    <path class="st2" d="M201.81,149.46v-10.99h2.43v10.99h-2.43Z"/>
    <path class="st2" d="M206.47,149.46v-10.99h1.81l5.99,7.59h-.45v-7.59h2.28v10.99h-1.81l-5.97-7.59h.44v7.59h-2.28Z"/>
    <path class="st2" d="M218.33,149.46v-10.99h7.64v1.89h-5.32v2.57h4.96v1.89h-4.96v2.76h5.32v1.89h-7.64Z"/>
    <path class="st2" d="M237.37,149.62c-1.16,0-2.17-.23-3.01-.69-.84-.46-1.49-1.12-1.94-1.97s-.68-1.85-.68-2.99.23-2.14.68-2.99c.45-.85,1.1-1.5,1.94-1.96.84-.46,1.85-.69,3.01-.69.77,0,1.47.1,2.09.31.62.21,1.15.51,1.57.92l-.75,1.92c-.48-.37-.93-.64-1.36-.79-.43-.16-.92-.23-1.47-.23-1.03,0-1.82.31-2.36.92-.55.61-.82,1.48-.82,2.6s.27,2.01.82,2.62,1.33.92,2.36.92c.55,0,1.04-.08,1.47-.23.43-.16.88-.42,1.36-.79l.75,1.92c-.43.4-.95.7-1.57.91-.62.21-1.32.32-2.09.32Z"/>
    <path class="st2" d="M242.75,149.46v-10.99h2.43v8.95h4.94v2.04h-7.38Z"/>
    <path class="st2" d="M251.62,149.46v-10.99h2.43v10.99h-2.43Z"/>
    <path class="st2" d="M256.28,149.46v-10.99h1.81l5.99,7.59h-.45v-7.59h2.28v10.99h-1.81l-5.97-7.59h.44v7.59h-2.28Z"/>
    <path class="st2" d="M268.13,149.46v-10.99h2.43v10.99h-2.43Z"/>
    <path class="st2" d="M278.1,149.62c-1.16,0-2.17-.23-3.01-.69-.84-.46-1.49-1.12-1.94-1.97s-.68-1.85-.68-2.99.23-2.14.68-2.99c.45-.85,1.1-1.5,1.94-1.96.84-.46,1.85-.69,3.01-.69.77,0,1.47.1,2.09.31.62.21,1.15.51,1.57.92l-.75,1.92c-.48-.37-.93-.64-1.36-.79-.43-.16-.92-.23-1.47-.23-1.03,0-1.82.31-2.36.92-.55.61-.82,1.48-.82,2.6s.27,2.01.82,2.62,1.33.92,2.36.92c.55,0,1.04-.08,1.47-.23.43-.16.88-.42,1.36-.79l.75,1.92c-.43.4-.95.7-1.57.91-.62.21-1.32.32-2.09.32Z"/>
  </g>
</svg>