<?xml version="1.0" encoding="UTF-8"?>
<svg id="Layer_1" xmlns="http://www.w3.org/2000/svg" version="1.1" viewBox="0 0 172.01 178.5">
  <!-- Generator: Adobe Illustrator 30.2.1, SVG Export Plug-In . SVG Version: 2.1.1 Build 1)  -->
  <defs>
    <style>
      .st0 {
        fill: #fff;
      }
    </style>
  </defs>
  <path class="st0" d="M28.76,51.59C39.04,17.67,74.74-7.03,114.59,1.81c39.12,8.68,59.5,44.31,57.25,75.49h-17.13c0-.82-.02-1.65,0-2.47.22-9.37-1.65-18.32-5.98-26.63-8.24-15.8-21.06-25.93-38.54-29.6-17.19-3.61-32.81.3-46.59,11.18-8,6.32-13.71,14.38-17.32,23.92-.22.58-.37.99-1.16.85-5.3-.95-10.62-1.87-15.92-2.8-.13-.02-.25-.09-.44-.16Z"/>
  <path class="st0" d="M138.24,93.15c-3.35-1.94-6.67-3.92-10-5.88-.78-.46-1.58-.9-2.5-1.43-1.09,7.82-4.45,14.24-10.32,19.21-5.88,4.98-12.75,7.39-20.46,6.96-14.17-.8-25.24-10.58-27.71-24.57-2.3-13.04,4.53-26,16.67-31.67,11.75-5.49,24.82-2.07,31.79,4.69-6.88,4.56-13.73,9.12-20.59,13.65-6.87,4.54-13.74,9.06-20.64,13.61,2.19,3.32,4.3,6.51,6.48,9.8,18.08-11.95,36.06-23.84,54.17-35.82-.78-1.27-1.44-2.5-2.24-3.62-10.17-14.23-23.97-20.74-41.43-19.21-7.24.64-13.88,3.18-19.86,7.3-15.42,10.64-22.37,28.97-17.88,47.16,1.73,7.02,5.07,13.21,9.9,18.59.26.3.5.86.4,1.2-1.27,4.42-3.4,8.32-7.37,10.87-2.55,1.64-5.21,3.18-7.96,4.45-5.56,2.57-11.23,4.88-16.83,7.37-7.47,3.33-14.55,7.28-20.35,13.18-3.4,3.46-6.12,7.35-7.89,11.91-2.21,5.69-3.23,11.58-3.63,17.58,3.77-8.89,9.9-16.53,17.6-22.16,2.39-2.01,5.08-3.68,7.93-5.14,5.82-2.99,12.1-4.8,18.25-6.92,5.51-1.9,11.02-3.85,16.4-6.08,4.95-2.05,9.31-5.1,12.59-9.43,1.57-2.07,2.93-4.3,4.45-6.55.18.06.49.14.77.27,8.58,3.98,17.59,5.16,26.77,3.16,17.34-3.77,28.66-14.33,33.94-31.32.19-.61.08-.88-.46-1.19v.03Z"/>
</svg>