<?xml version="1.0" encoding="UTF-8"?>
<svg id="Layer_1" xmlns="http://www.w3.org/2000/svg" version="1.1" viewBox="0 0 169.04 165.34">
  <!-- Generator: Adobe Illustrator 30.2.1, SVG Export Plug-In . SVG Version: 2.1.1 Build 1)  -->
  <defs>
    <style>
      .st0 {
        fill: #a8b837;
      }

      .st1 {
        fill: #3f84c5;
      }
    </style>
  </defs>
  <path class="st1" d="M84.52,6.64C40.69,6.64,5.16,42.16,5.16,85.99c0,21.36,8.45,40.73,22.17,54.99,2.82-1.22,5.64-2.44,8.43-3.73,2.82-1.3,5.54-2.88,8.15-4.56,4.06-2.61,6.25-6.61,7.55-11.14.1-.35-.14-.93-.41-1.23-4.95-5.52-8.38-11.86-10.15-19.05-4.59-18.64,2.52-37.42,18.32-48.32,6.12-4.23,12.93-6.83,20.35-7.48,17.89-1.57,32.02,5.1,42.45,19.68.82,1.15,1.5,2.41,2.3,3.71-18.56,12.27-36.98,24.45-55.51,36.7-2.23-3.38-4.39-6.64-6.64-10.04,7.07-4.66,14.12-9.3,21.15-13.95,7.03-4.65,14.05-9.31,21.1-13.99-7.14-6.92-20.53-10.42-32.57-4.8-12.44,5.81-19.45,19.09-17.08,32.45,2.53,14.33,13.87,24.36,28.4,25.18,7.89.45,14.94-2.02,20.96-7.13,6.01-5.09,9.45-11.67,10.57-19.68.95.54,1.76.99,2.56,1.46,3.42,2.01,6.82,4.04,10.25,6.03.56.32.66.6.47,1.22-5.41,17.41-17.01,28.22-34.78,32.09-9.41,2.05-18.64.83-27.43-3.24-.29-.13-.61-.21-.79-.28-1.55,2.3-2.95,4.59-4.56,6.71-3.37,4.44-7.83,7.56-12.9,9.66-2.94,1.22-5.93,2.36-8.93,3.45,12.96,9.21,28.8,14.65,45.91,14.65,43.83,0,79.35-35.53,79.35-79.35S128.34,6.64,84.52,6.64Z"/>
  <path class="st0" d="M0,60.88C12.12,20.85,54.26-8.3,101.28,2.13c46.16,10.24,70.21,52.29,67.56,89.08h-20.22c0-.96-.02-1.94,0-2.92.26-11.06-1.94-21.62-7.06-31.42-9.73-18.64-24.85-30.6-45.47-34.93-20.28-4.25-38.72.36-54.98,13.2-9.44,7.46-16.18,16.97-20.44,28.23-.26.68-.44,1.17-1.37,1-6.26-1.13-12.53-2.2-18.79-3.3-.15-.03-.3-.11-.52-.19Z"/>
</svg>